<?xml version="1.0" encoding="UTF-8" standalone="no"?>
<!DOCTYPE svg PUBLIC "-//W3C//DTD SVG 1.1//EN" "http://www.w3.org/Graphics/SVG/1.1/DTD/svg11.dtd">
<svg version="1.1" xmlns="http://www.w3.org/2000/svg" xmlns:xlink="http://www.w3.org/1999/xlink" preserveAspectRatio="xMidYMid meet" viewBox="0 0 41 78" width="41" height="78"><defs><path d="M40.42 20.56C40.42 31.6 31.46 40.56 20.42 40.56C9.38 40.56 0.42 31.6 0.42 20.56C0.42 9.52 9.38 0.56 20.42 0.56C31.46 0.56 40.42 9.52 40.42 20.56Z" id="b7TXG4iqYT"></path><path d="M30.42 50.43L40.42 23.31L20.42 23.31L0.42 23.31L10.42 50.43L20.42 77.55L30.42 50.43Z" id="cT69XxHou"></path><path d="M32.92 19.38C32.92 26.28 27.32 31.88 20.42 31.88C13.52 31.88 7.92 26.28 7.92 19.38C7.92 12.48 13.52 6.88 20.42 6.88C27.32 6.88 32.92 12.48 32.92 19.38Z" id="fqXtzmrr"></path></defs><g><g><g><use xlink:href="#b7TXG4iqYT" opacity="1" fill="#fb0808" fill-opacity="1"></use></g><g><use xlink:href="#cT69XxHou" opacity="1" fill="#fb0808" fill-opacity="1"></use></g><g><use xlink:href="#fqXtzmrr" opacity="1" fill="#ffffff" fill-opacity="1"></use></g></g></g></svg>