<?xml version="1.0" encoding="UTF-8" standalone="no"?>
<!DOCTYPE svg PUBLIC "-//W3C//DTD SVG 1.1//EN" "http://www.w3.org/Graphics/SVG/1.1/DTD/svg11.dtd">
<svg version="1.1" xmlns="http://www.w3.org/2000/svg" xmlns:xlink="http://www.w3.org/1999/xlink" preserveAspectRatio="xMidYMid meet" viewBox="0 0 393 446" width="393" height="446"><defs><path d="M373.02 259.81C373.02 361.74 290.29 444.38 188.24 444.38C86.18 444.38 3.45 361.74 3.45 259.81C3.45 157.87 86.18 75.23 188.24 75.23C290.29 75.23 373.02 157.87 373.02 259.81Z" id="p4iBvHuGBo"></path><path d="M271.67 180.92L282.01 165.78L297.76 161.28L320.99 172.68L336.44 171.78L338.69 173.28L329.99 181.37L319.35 182.57L310.8 182.42L298.8 177.17L290.56 180.02L281.11 194.12L271.67 180.92Z" id="a6cybiYne"></path><path d="M277.36 184.22L279.76 186.02L287.56 175.52L297.61 173.13L311.4 178.52L321.89 179.42L325.64 175.67L314.55 175.67L299.1 167.88L285.91 170.43L277.36 184.22Z" id="aQZbHUCkH"></path><path d="M287.26 209.56L309.15 190.67L314.1 168.48L312.75 155.43L301.35 126.5L292.81 102.81L292.66 99.81L290.26 98.46L284.26 106.26L283.96 127.4L296.26 147.49L295.96 155.58L296.86 170.73L292.66 184.67L279.76 193.97L287.26 209.56Z" id="c6vWIQKv"></path><path d="M289.36 112.55L293.11 122L303.3 140.74L306.45 150.64L306.45 169.08L302.7 182.42L298.06 192.02L285.31 201.91L283.36 196.66L295.06 187.52L302.1 169.23L302.4 152.13L296.56 136.39L289.06 121.55L289.36 112.55Z" id="b2boCSe89P"></path><path d="M289.48 212.1L293.4 211.99L305.28 206.16L313.34 211.67L311.64 223.02L316.52 234.47L323.73 237.33L332.74 232.45L334.43 226.73L328.18 226.41L324.79 214.01L322.35 199.8L315.67 192.91L309.2 190.05L291.07 191.74L283.44 195.24L281.74 200.86L284.39 208.28L289.48 212.1Z" id="bVpyKdGx1"></path><path d="M324.26 232.45L325.85 229.91L320.01 222.28L319.91 205.31L316.09 199.38L308.03 195.67L288.74 197.15L286.83 201.39L287.68 204.36L291.71 205.95L303.9 201.28L310.9 201.5L313.97 203.19L317.58 209.34L316.62 224.71L322.98 232.24L324.26 232.45Z" id="a3C6K7QxIi"></path><path d="M285.31 196.81L296.86 190.52L301.2 178.22L299.4 163.38L293.86 153.78L280.96 144.64L256.37 141.04L240.93 132.19L231.34 123.5L232.54 133.24L242.43 150.94L269.72 158.73L282.61 165.33L287.11 171.33L287.41 177.77L278.11 188.42L276.47 190.22L281.56 199.06L285.31 196.81Z" id="a2fC7TnaA"></path><path d="M281.26 190.82L288.91 185.87L293.26 175.52L290.71 166.08L283.66 158.73L270.32 151.69L255.03 150.19L248.58 147.04L240.33 136.69L259.07 146.74L274.07 148.54L290.41 156.48L295.06 164.13L297.61 178.07L292.51 188.72L282.16 195.61L280.36 191.42L281.26 190.82Z" id="aymKAQa8X"></path><path d="M259.9 248.14L268.81 243.05L288.1 222.91L291.07 212.1L280.26 188.77L260.96 171.18L256.09 171.6L226.4 187.5L235.52 223.97L259.9 248.14Z" id="a2X7wONsw"></path><path d="M232.39 192.47L258.17 178.97L274.22 192.17L281.11 206.11L282.16 219.3L269.87 232.2L259.97 236.1L240.18 220.5L232.39 192.47Z" id="ouslu49c0"></path><path d="M160.87 441.5L155.17 391.12L130.58 370.73L124.29 364.44L111.69 330.55L97.3 270.28L105.99 250.79L113.79 244.19L127.28 241.79L128.78 220.2L133.88 208.21L137.48 206.41L154.27 205.81L159.67 190.82L166.87 183.32L188.76 183.32L193.85 170.73L201.35 164.13L215.74 165.93L222.34 168.63L232.54 184.22L235.53 190.82L245.13 218.7L261.62 227.4L264.02 245.39L267.92 253.49L268.22 272.68L276.91 297.57L277.21 301.77L255.03 348.54L255.03 355.14L257.42 359.64L265.52 379.13L276.62 421.41L251.73 433.7L200.45 444.5L160.87 441.5Z" id="dbI834gCj"></path><path d="M105.54 279.13L107.94 279.13L110.64 275.08L113.79 274.78L124.44 280.03L129.08 284.22L138.53 306.11L145.43 312.26L155.47 312.26L161.02 299.97L159.97 293.97L146.48 270.13L128.48 247.64L116.34 251.39L106.29 270.88L105.39 276.43L105.54 279.13Z" id="b2qSh2GAF"></path><path d="M135.53 246.29L160.57 274.93L169.42 294.12L173.01 296.07L178.86 295.77L184.86 280.48L184.41 272.38L175.71 251.54L171.81 247.04L164.62 241.94L155.92 216.9L153.67 214.66L140.03 216.31L138.08 219.6L135.38 237.6L135.53 246.29Z" id="b5JQ7OdDJP"></path><path d="M170.01 190.07L161.32 205.96L161.32 211.21L169.27 237L181.6 249.17L186.32 256.87L188.61 263.98L191 272.23L201.05 277.33L208.1 277.48L212.44 274.78L215.14 259.48L212.89 254.39L197.45 243.59L187.41 231.9L186.21 217.65L191.75 202.21L191.75 197.86L186.66 190.07L170.01 190.07Z" id="a2RkhHYDuC"></path><path d="M197.3 195.91L195.65 187.07L203.15 173.13L218.89 175.67L231.64 203.71L234.48 212.26L234.78 215.71L227.29 215.41L205.7 199.06L203.75 195.61L197.3 195.91Z" id="i1qNUzCvH7"></path><path d="M207.2 206.26L205.85 209.56L207.35 214.66L218.89 223.8L220.24 217.8L219.64 213.61L209.3 205.96L207.2 206.26Z" id="aOztPA7qf"></path><path d="M202.55 205.06L201.5 214.66L219.19 232.35L224.59 231.75L226.99 222.9L241.08 225.45L252.48 230.1L256.37 274.18L265.07 293.07L266.57 303.41L265.07 312.86L253.98 333.85L245.13 349.29L254.43 371.78L260.12 389.02L265.07 405.67L268.67 424.26L235.83 438.65L184.71 444.2L171.21 442.55L163.57 383.63L138.53 366.98L130.43 355.59L120.81 327.44L120.17 324.58L128.02 324.69L138.3 314.51L145.09 317.69L158.76 317.48L166.5 301.89L166.5 300.3L174.24 302.21L180.39 301.47L185.8 293.52L189.51 285.99L189.83 281.33L195.55 283.24L199.58 285.14L209.01 284.61L212.3 281.64L214.85 281.64L214.85 286.84L206.79 296.91L198.94 309.31L193.75 318.01L193.75 321.29L195.44 323.52L197.25 322.88L199.16 318.33L209.65 303.17L218.24 294.15L221.84 293.09L224.92 294.05L227.14 296.27L230.11 296.81L230.96 295.74L231.07 293.94L229.16 291.5L220.89 286.2L220.57 265.95L222.69 261.5L223.01 256.52L226.08 253.76L229.69 253.34L231.6 251.22L230.22 248.46L226.19 248.99L223.43 251.11L219.93 250.79L206.36 244.22L200.64 238.07L196.08 228L195.87 211.46L197.35 206.27L200 204.15L202.55 205.06Z" id="d1TOtJXrzT"></path><path d="M58.37 364.87L54.23 364.87L46.6 356.07L47.66 329.67L51.58 318.54L56.88 313.24L73.42 306.45L82.75 296.59L85.61 290.87L110 282.6L115.51 281.75L123.46 286.52L134.06 304.97L136.29 310.16L138.3 314.51L128.02 324.69L120.17 324.58L105.97 328.93L99.5 327.55L65.15 335.61L54.55 346.95L53.81 353.21L58.37 364.87Z" id="a77jjo6JQ"></path><path d="M52.47 340L52.62 332.5L56.97 323.36L62.96 315.71L83.21 309.26L91.6 294.42L116.34 286.02L118.59 287.07L124.89 295.32L132.68 308.21L132.53 312.41L123.69 317.36L122.49 316.91L124.59 312.26L124.89 306.86L122.64 304.46L118.89 309.26L114.24 320.21L106.89 322.46L105.09 321.71L103.75 320.06L107.94 308.66L108.24 305.66L105.99 304.01L103.45 305.81L96.4 318.41L91.45 321.86L70.16 327.85L60.72 331.6L52.47 340Z" id="dRifjWdK6"></path><path d="M228.31 131L228.73 135.66L218.34 151.14L208.91 155.7L210.71 150.71L209.55 149.97L200.32 151.99L191.2 149.97L191.2 148.17L203.29 142.02L198.31 138.52L198.31 133.96L211.77 131.42L210.61 126.22L214.32 125.48L228.31 131Z" id="fohnfH8do"></path><path d="M222.06 114.46L216.65 119.23L207.21 121.88L205.52 121.88L200.96 119.33L197.78 119.33L192.9 120.5L190.67 118.49L193.01 114.14L180.39 107.57L179.12 104.7L181.35 102.69L196.4 104.17L196.93 102.79L194.7 98.87L196.61 97.07L200.53 97.39L200.64 93.36L198.84 87.21L202.23 88.38L216.97 100.99L221.74 109.58L222.06 114.46Z" id="c8zNqlYlE"></path><path d="M244.85 123.89L238.28 124.32L225.55 116.89L219.72 110.75L226.93 110.75L221.84 95.59L224.28 94.95L228.2 95.9L229.37 95.59L228.73 91.87L226.08 85.51L229.26 83.5L240.08 98.87L240.82 98.77L241.35 96.43L246.12 96.43L246.01 123.36L244.85 123.89Z" id="b10tRYb79F"></path><path d="M267.22 140.54L258.21 138.2L244.11 121.88L252.06 121.03L249.51 107.04L251.63 107.04L260.01 115.52L260.96 111.49L264.36 111.49L266.9 117.85L270.72 114.77L273.37 120.61L273.47 127.71L271.14 136.3L267.22 140.54Z" id="aBYR0jU2s"></path><path d="M279.52 112.34L274.64 112.12L262.34 103.86L259.16 103.86L259.16 102.37L262.13 101.63L263.72 100.04L258.31 90.5L264.89 89.12L265.1 84.03L270.19 84.98L275.7 87.95L281 97.81L283.33 105.98L281.85 109.47L279.52 112.34Z" id="a2ik0S1gtf"></path><path d="M264.57 82.12L249.51 76.08L247.39 73L250.36 72.9L250.36 70.25L246.65 64.73L247.18 63.78L250.04 63.78L250.04 60.81L247.71 55.62L244.85 51.91L244.96 50.21L247.5 50.85L255.13 56.57L258.84 57L262.87 52.75L265.1 53.82L263.83 58.9L264.57 61.02L267.22 60.18L268.28 60.6L269.23 64.31L268.28 77.03L264.57 82.12Z" id="diVTHPzkD"></path><path d="M287.68 95.59L282.59 92.83L272.52 73.75L273.37 72.37L278.77 72.16L279.62 65.05L281.21 61.24L282.59 61.55L284.08 70.46L292.34 70.57L287.68 95.59Z" id="c4kZQs9LSI"></path><path d="M235.41 60.18L228.95 59.75L224.07 53.92L216.65 52.97L212.62 42.68L217.18 38.12L218.03 22.01L220.68 21.06L225.66 32.19L228.1 32.19L230.64 29.43L233.4 31.87L233.29 37.06L235.1 40.46L238.59 40.46L240.5 43.11L236.16 48.2L235.41 60.18Z" id="apQMMMNFC"></path><path d="M257.36 49.89L255.24 50.85L243.79 40.56L237.11 31.13L236.9 23.39L240.08 23.49L239.55 8.02L241.88 4.2L242.94 0.49L245.8 0.17L248.98 9.82L252.8 6.53L254.71 8.02L252.59 16.92L254.39 20L256.51 17.77L260.86 18.19L256.83 27.74L256.83 31.23L258.95 31.23L257.36 49.89Z" id="b46dJfALO"></path><path d="M67.23 166.83C67.13 166.75 75.6 154.76 86.03 140.2C87.29 138.43 93.62 129.6 105 113.71C116.32 129.46 122.6 138.21 123.86 139.96C134.23 154.4 142.72 166.37 142.72 166.56C142.72 166.75 141.76 167.37 140.58 167.94C140.44 168.01 139.73 168.36 138.45 168.98C137.35 168.25 136.74 167.85 136.61 167.77C133.63 165.8 130.84 165.2 124.52 165.2C120.6 165.2 118.11 164.98 116.75 164.5C114.4 163.67 109.65 160.36 107.32 157.93C106.43 156.99 105.5 156.23 105.25 156.23C105.01 156.23 103.27 157.7 101.38 159.49C99.5 161.28 97.03 163.28 95.9 163.95C93.27 165.48 88.83 166.18 82.66 166.04C78.42 165.93 77.53 166.05 75.86 166.94C74.81 167.51 73.66 168.3 73.32 168.71C72.55 169.65 72.58 169.65 69.75 168.19C68.46 167.52 67.32 166.91 67.23 166.83ZM100.25 148.91C101.27 146.35 101.37 145.46 101.28 139.7C101.11 129.19 101.9 128.87 90.87 143.89C85.59 151.07 81.24 157.15 81.18 157.41C81.05 158.07 84.01 159 86.32 159.04C87.37 159.05 89.38 158.72 90.77 158.31C94.26 157.28 98.65 152.92 100.25 148.91ZM129.28 157.61C129.52 157.22 109.98 131.55 109.25 131.3C108.62 131.09 108.24 142.84 108.78 145.76C110.53 155.21 118.33 160.7 126.93 158.53C128.09 158.24 129.15 157.83 129.28 157.61ZM56.15 155.31C57.17 152.92 56.71 149.17 54.72 143.56C52.11 136.21 52.45 132.19 56.35 124.47C57.13 122.92 57.71 121.6 57.62 121.53C57.54 121.45 56.41 120.86 55.11 120.21C51.56 118.42 47.04 114.92 45.45 112.72C44.63 111.59 43.32 108.48 42.34 105.35C40.73 100.19 40.51 99.79 37.78 97.02C35.14 94.36 34.92 93.97 35.02 92.23C35.08 91.19 35.27 90.1 35.44 89.8C35.66 89.43 45.28 92.16 66.66 98.67C83.65 103.84 97.6 108.13 97.64 108.19C97.78 108.39 60.09 160.71 59.71 160.84C59.5 160.91 58.46 160.06 57.4 158.95C55.48 156.95 55.47 156.93 56.15 155.31ZM82.55 118.28C82.88 117.41 73.27 119.85 69.74 121.53C63.54 124.49 59.34 131.75 60.26 137.91C60.57 139.97 63.06 144.89 63.8 144.89C64.02 144.89 68.27 139.06 73.24 131.93C78.21 124.79 82.4 118.65 82.55 118.28ZM79.41 109.48C78.37 108.92 49.29 99.08 48.68 99.08C47.62 99.08 48.51 104.9 49.96 107.58C53.92 114.86 62.3 116.95 72.12 113.11C79.46 110.24 80.17 109.89 79.41 109.48ZM112.67 108.19C112.99 107.87 172.28 89.73 173.65 89.54C174.46 89.42 174.64 89.74 174.88 91.76C175.15 94.06 175.11 94.16 173.27 95.76C170.6 98.06 168.89 100.99 167.46 105.67C166.78 107.89 165.85 110.45 165.38 111.36C163.92 114.18 159.51 117.83 154.53 120.33C153.36 120.92 152.33 121.46 152.25 121.53C152.17 121.6 152.67 122.79 153.37 124.17C157.64 132.58 157.91 135.94 155.03 144.26C152.96 150.23 152.73 152.21 153.78 155.17C153.82 155.29 154.04 155.92 154.44 157.06C153.25 158.23 152.59 158.88 152.46 159.01C151.37 160.08 150.37 160.95 150.23 160.95C150.1 160.95 141.53 149.14 131.2 134.71C120.86 120.27 112.52 108.34 112.67 108.19ZM149.71 135C149.33 129.68 145.32 124.01 140.23 121.58C136.81 119.94 126.98 117.36 127.29 118.18C127.74 119.35 145.73 144.89 146.11 144.89C146.31 144.89 147 144.1 147.62 143.12C149.3 140.51 149.93 138.05 149.71 135ZM161.5 102.05C161.66 100.11 161.56 99.08 161.24 99.08C160.61 99.08 130.39 109.36 130.07 109.69C129.94 109.81 130.34 110.11 130.96 110.35C131.59 110.59 133.94 111.56 136.21 112.49C141.77 114.8 143.3 115.13 147.48 114.94C150.12 114.81 151.76 114.44 153.71 113.52C158.23 111.38 161.09 107.17 161.5 102.05ZM109.66 67.85L109.66 35.25C111.29 35.45 112.19 35.56 112.38 35.58C113.87 35.76 115.22 36.04 115.37 36.2C115.52 36.37 115.89 37.38 116.19 38.45C116.98 41.22 118.15 42.49 122.88 45.74C130.11 50.69 131.82 53.27 133.52 61.87C133.58 62.14 133.85 63.49 134.33 65.94C138.07 65.78 140.15 65.69 140.56 65.68C148.4 65.35 150.11 65.85 156.04 70.27C160.56 73.64 163.69 74.99 166.98 75C168.82 75.01 169 75.14 170.19 77.29C170.27 77.44 170.69 78.2 171.44 79.57C170.12 80 169.39 80.25 169.24 80.3C168.03 80.7 154.13 85.4 138.35 90.74C136.44 91.38 126.87 94.62 109.66 100.44L109.66 67.85ZM154.67 79.26C155.37 78.62 151.96 74.87 149.33 73.39C146.98 72.07 146.35 71.93 142.72 71.94C138.01 71.95 135.59 72.91 131.9 76.23C129.94 77.99 123.36 87.4 123.36 88.44C123.36 88.91 123.84 88.78 140.12 83.88C147.91 81.53 154.46 79.46 154.67 79.26ZM126.56 66.24C126.82 62.17 125.89 58.55 123.85 55.73C122.3 53.59 118.12 50.92 116.32 50.91C116.24 50.91 115.86 50.91 115.18 50.91C115.37 54.35 115.47 56.27 115.49 56.65C115.66 59.81 115.8 67.25 115.8 73.18C115.8 79.11 115.96 83.96 116.15 83.94C116.35 83.92 118.21 81.81 120.29 79.24C124.93 73.5 126.27 70.72 126.56 66.24ZM39.67 79.6C38.93 79.32 38.97 79.1 40.01 77.23C41.14 75.21 41.24 75.15 44.49 74.65C48.38 74.05 50.46 73.05 54.59 69.8C59.11 66.25 61.37 65.41 66.45 65.36C68.79 65.33 71.87 65.47 73.3 65.66C73.47 65.68 74.34 65.79 75.89 66C76.38 63.48 76.65 62.09 76.71 61.81C77.75 56.43 79.18 52.65 80.89 50.7C81.63 49.86 84.27 47.73 86.74 45.97C92.01 42.24 93.44 40.68 94.19 37.86C94.53 36.58 95.02 35.78 95.47 35.77C95.87 35.75 97.21 35.57 98.44 35.37C98.59 35.34 99.34 35.22 100.69 35C100.69 54.51 100.69 65.35 100.69 67.51C100.69 93.23 100.56 100.02 100.1 100C99.77 99.98 86.22 95.45 69.99 89.94C53.76 84.42 40.11 79.77 39.67 79.6ZM78.48 76.21C71.86 70.02 63.15 69.92 57.49 75.97C56.31 77.23 55.35 78.47 55.35 78.73C55.35 78.99 56.78 79.64 58.54 80.16C60.29 80.69 67.25 82.8 74 84.87C87.26 88.91 86.99 88.84 86.99 88.38C86.99 87.38 80.49 78.09 78.48 76.21ZM94.55 50.37C93.91 50.57 93.56 50.68 93.49 50.7C89.32 51.99 86.06 54.99 84.6 58.88C83.18 62.66 83.44 68.52 85.18 72.16C86.4 74.72 93.34 83.5 94.14 83.5C94.36 83.5 94.55 76.04 94.55 66.93C94.55 66.93 94.55 61.41 94.55 50.37Z" id="a1XUPQuiM"></path><mask id="maski1ENBUr1Vi" x="25" y="25" width="160" height="154.36" maskUnits="userSpaceOnUse"><rect x="25" y="25" width="160" height="154.36" fill="white"></rect><use xlink:href="#a1XUPQuiM" opacity="1" fill="black"></use></mask><path d="M274.22 60.18L272.1 60.18L263.3 43.96L264.14 42.37L266.58 42.58L266.58 38.23L264.04 33.57L264.89 32.51L268.91 33.46L268.91 27.84L266.69 23.28L269.02 21.27L275.81 29.11L276.34 31.34L278.94 32.19L283.36 26.19L285.01 27.17L284.94 42.91L275.19 57.45L274.22 60.18Z" id="g6QvKRGOdS"></path><path d="M298.28 72.97L296.26 68.92L287.48 57.98L287.41 54.38L289.74 55.8L292.51 55.36L291.09 46.88L292.66 46.21L294.98 48.31L294.98 42.24L293.86 39.09L294.08 35.34L295.88 35.86L299.11 43.81L301.81 44.19L305.18 35.41L306.38 36.09L306.68 50.56L308.18 52.43L310.73 52.43L316.42 49.21L316.87 49.96L313.43 62.48L306.45 69.97L301.13 72.82L298.28 72.97Z" id="b9ciCYPOGM"></path><path d="M291.98 97.94L295.28 85.79L306.38 74.62L307.2 75L305.33 82.72L306.98 82.94L325.72 70.72L326.54 71.7L319.87 83.77L323.47 84.37L324.67 86.17L323.99 88.49L315.9 95.46L316.12 100.03L312.97 101.76L304.35 102.96L294.08 99.73L291.98 97.94Z" id="a5IbknjoT"></path><path d="M310.5 134.07L307.13 132.27L306.08 112.85L309.67 108.21L313.87 109.33L325.87 96.66L325.87 108.06L333.81 106.26L328.79 111.65L321.97 127.55L310.5 134.07Z" id="j2PAcq36Tz"></path><path d="M340.16 144.04L335.92 140.01L333.27 123.68L340.05 111.59L342.6 113.71L347.58 106.4L348.96 102.69L352.14 103.43L354.15 119.55L362.21 117.11L363.8 119.44L357.12 128.56L356.91 131.53L359.77 131.1L359.88 133.33L353.41 139.37L340.16 144.04Z" id="bgphwRb5y"></path><path d="M366.03 142.87L365.18 134.71L367.83 118.06L369.52 117.96L371.54 119.55L374.61 115.83L374.4 105.98L375.78 105.98L381.29 112.34L383.94 108.63L387.23 111.06L386.49 124.21L392 124.85L391.89 129.51L383.94 138.2L371.64 142.98L366.03 142.87Z" id="kxq6IkdwX"></path><path d="M345.03 173.51L351.08 152.41L353.09 151.99L355.95 155.17L357.44 155.17L360.73 151.77L360.41 143.61L362.85 143.61L366.98 152.73L376.31 152.83L368.68 161.42L372.71 163.54L372.71 166.51L358.39 173.3L345.03 173.51Z" id="dqZWT52F7"></path><path d="M320.44 167.78L320.54 161.21L324.57 147.22L331.36 141.07L334.64 147.43L341.64 145.73L339.52 156.44L346.41 160.15L331.57 167.89L320.44 167.78Z" id="c1VfD6iKMA"></path><path d="M325.42 188.67L336.13 198.85L345.46 203.4L354.26 203.93L353.2 200.65L354.47 199.69L367.51 203.51L371.64 199.91L366.56 193.55L368.89 190.58L375.57 189.09L375.25 187.18L361.26 185.81L351.4 183.58L337.19 184.96L325.42 188.67Z" id="aHRQhZ7KI"></path><path d="M309.31 227.15L296.69 233.94L296.59 236.27L299.55 239.56L292.77 249.31L297.12 249.95L294.04 265.11L298.81 265.21L307.93 253.97L311.96 256.94L316.73 255.99L313.87 245.28L318.74 246.55L320.01 246.02L309.31 227.15Z" id="aoHxdNGcZ"></path><path d="M313.55 255.03L305.81 269.98L305.6 279.42L313.76 279.31L323.3 293.31L330.19 298.71L332.21 297.02L328.07 280.9L339.52 282.49L329.24 268.82L334.86 269.24L329.98 262.35L317.47 254.29L313.55 255.03Z" id="a44Zz4ajKq"></path><path d="M330.4 235.95L327.01 248.04L329.77 258.53L343.44 271.04L348 272.63L349.38 269.66L347.37 264.26L349.06 263.41L363.16 262.88L352.77 252.7L359.03 249.63L356.17 246.02L349.7 246.45L348.32 243.9L351.18 242.1L348 237.86L331.36 233.3L330.4 235.95Z" id="a1giLuwmMl"></path><path d="M348.43 219.41L343.87 223.65L345.46 228.21L350.97 236.38L361.15 245.39L363.16 241.15L372.07 241.36L372.81 234.36L385.85 226.52L376.1 223.87L377.37 215.38L368.15 215.7L359.45 217.72L359.14 213.05L357.65 212.1L351.82 219.31L348.43 219.41Z" id="a3d14NErA"></path><path d="M322.77 201.5L325.85 213.69L330.4 221.64L338.89 222.91L338.99 217.72L348.64 219.63L348.64 217.61L340.9 211.89L348 208.18L348 206.37L333.48 200.44L322.77 201.5Z" id="a1GZPas2sQ"></path><path d="M225.13 135.77L218.24 146.79L216.01 146.79L215.48 144.25L206.68 146.05L210.92 142.13L206.36 138.73L215.59 136.3L218.03 131L225.02 134.18L225.13 135.77Z" id="i4ZUTexqhI"></path><path d="M217.07 109.69L217.07 113.61L208.7 117.53L205.62 114.88L200 115.94L199.58 111.38L195.76 110.96L193.96 107.88L205.94 107.88L205.41 97.28L210.39 100.14L217.07 109.69Z" id="anCs1MgEC"></path><path d="M242.09 119.65L234.25 116.15L234.99 112.76L230.22 102.79L232.13 102.37L232.34 96.54L237.53 106.4L242.3 106.4L242.09 119.65Z" id="d1dFwkZ0eI"></path><path d="M264.57 77.24L255.56 74.28L257.68 73L257.15 70.04L251.74 67.39L255.34 66.11L252.48 58.48L257.46 62.61L259.37 58.69L260.64 59.01L261.71 66.11L266.05 65.16L264.57 77.24Z" id="b1xNhHnRTY"></path><path d="M230.43 53.07L220.68 47.03L218.56 42.15L223.43 43.53L220.47 27.42L226.93 39.18L229.05 37.81L230.11 41.73L234.35 45.65L230.43 53.07Z" id="b4xbQdp5CN"></path><path d="M255.13 46.61L241.67 29.64L245.17 28.69L243.36 9.71L245.7 10.88L246.76 19.25L249.83 18.3L251.32 24.24L254.5 24.02L252.27 38.65L255.66 38.65L255.13 46.61Z" id="a1SU52zSE"></path><path d="M272.1 54.35L269.97 49.79L272.84 47.03L272.84 41.84L271.88 40.67L271.88 32.19L275.91 37.81L281.74 34.41L281.74 40.88L272.1 54.35Z" id="d4uAZfg2yP"></path><path d="M283.86 89.12L280.26 79.05L282.17 80.43L282.48 73.85L284.39 78.73L286.94 75.97L284.92 88.27L283.86 89.12Z" id="cOjZL0vHt"></path><path d="M299.24 67.28L293.93 60.39L296.27 59.43L296.16 54.66L298.71 54.87L298.81 51.16L299.66 49.89L301.25 51.91L303.69 48.83L306.23 57.21L311.32 55.94L304.75 66.11L299.24 67.28Z" id="d76xF3VIM"></path><path d="M339.1 139.58L340.26 123.15L344.19 123.15L349.06 114.03L350.55 121.35L349.06 123.68L350.12 128.24L353.62 124.42L355.32 124.42L352.03 129.3L351.93 135.24L340.26 140.85L339.1 139.58Z" id="jfmw4JhUi"></path><path d="M370.27 137.14L371.64 124.74C374.51 123.72 376.1 123.16 376.42 123.04C376.42 123.04 375.99 120.71 376.42 120.5C376.84 120.29 382.35 117.64 382.35 117.64C382.38 117.87 382.52 119.04 382.78 121.14L379.6 126.54L380.87 130.47L384.68 129.3L384.68 131.95L372.6 137.57L370.27 137.14Z" id="b7f3dGsAAk"></path><path d="M323.51 164.28L327.12 152.62L331.15 158.35L336.02 152.83L334.54 158.24L341.43 160.26L333.05 164.92L323.51 164.28Z" id="c1FQyp9nlO"></path><path d="M349.49 170.43C349.49 169.8 353.73 159.51 353.73 159.51C353.97 159.6 355.17 160.02 357.33 160.79L362.74 153.58L366.87 158.98L360.73 165.24L364.44 168.42L359.35 170.33C354.09 170.38 350.8 170.42 349.49 170.43Z" id="g2rmVQbcfK"></path><path d="M333.37 217.72L328.92 205.63L329.45 204.78L338.99 207.22L334.54 211.46L338.25 215.7L334.65 215.38L333.37 217.72Z" id="aw4r54m8B"></path><path d="M308.03 233.09L305.07 236.16L306.87 237.22L304.01 242.63L305.6 243.48L305.81 250.26L309.94 247.19L309.73 241.68L311 240.09L313.02 240.3L308.03 233.09Z" id="d2asseiWWu"></path><path d="M333.27 242.31L333.16 250.79L340.69 263.3L340.37 257.9L350.97 258.43L345.88 252.6L348.22 252.6L347.47 249.84L339.42 247.4L342.6 243.69L336.24 240.62L333.27 242.31Z" id="btoYMowVX"></path><path d="M317.15 260.23L312.81 268.18L316.94 267.23L321.07 279.21L322.56 274.54L328.28 276.56L323.3 266.59L326.91 266.59L320.12 260.44L317.15 260.23Z" id="c1YT0RSyN"></path><path d="M350.02 223.02L348.43 226.3L353.52 235.32L356.91 237.97L356.48 232.98L361.36 233.94L367.4 237.22L365.6 232.88L373.34 229.17L373.34 227.36L362.53 223.87L350.02 223.02Z" id="c6hGgqC8Mo"></path><path d="M336.24 190.68L336.87 193.54L339.63 196.62L343.97 198.95L348.53 199.48L347.37 196.2L361.15 198.1L355.32 193.76L356.48 190.89L351.4 189.73L351.5 187.08L344.82 189.62L341.64 189.62L341.32 187.18L340.37 187.18L336.24 190.68Z" id="bP7Ond5dF"></path><path d="M310.79 127.6L312.17 115.2L316.73 115.3L320.76 106.93L320.33 116.05L324.25 115.2L322.03 120.82L314.08 128.03L310.79 127.6Z" id="b45p3QgEI9"></path><path d="M267.22 134.81L263.51 134.92L254.92 129.4L256.4 117.42L260.54 122.3L263.93 120.39L265.1 124.21L269.66 121.35L267.22 134.81Z" id="anGFqRuoZ"></path><path d="M276.76 108.2L268.91 103.22L271.35 102.79L266.58 93.46L271.46 96.01L269.87 89.65L275.38 95.37L276.76 99.72L276.76 108.2Z" id="c2be4tkXDR"></path><path d="M297.54 96.22L301.57 87.85L309.52 87.53L313.23 85.41L312.06 91.56L314.82 92.51L305.6 98.98L297.54 96.22Z" id="dINu4vUqw"></path></defs><g><g><g><use xlink:href="#p4iBvHuGBo" opacity="1" fill="#ffffff" fill-opacity="1"></use><g><use xlink:href="#p4iBvHuGBo" opacity="1" fill-opacity="0" stroke="#000000" stroke-width="3" stroke-opacity="1"></use></g></g><g><use xlink:href="#a6cybiYne" opacity="1" fill="#000000" fill-opacity="1"></use><g><use xlink:href="#a6cybiYne" opacity="1" fill-opacity="0" stroke="#000000" stroke-width="0.05" stroke-opacity="0"></use></g></g><g><use xlink:href="#aQZbHUCkH" opacity="1" fill="#1cb14b" fill-opacity="1"></use><g><use xlink:href="#aQZbHUCkH" opacity="1" fill-opacity="0" stroke="#000000" stroke-width="0.16" stroke-opacity="0"></use></g></g><g><use xlink:href="#c6vWIQKv" opacity="1" fill="#000000" fill-opacity="1"></use><g><use xlink:href="#c6vWIQKv" opacity="1" fill-opacity="0" stroke="#000000" stroke-width="0.05" stroke-opacity="0"></use></g></g><g><use xlink:href="#b2boCSe89P" opacity="1" fill="#1cb14b" fill-opacity="1"></use><g><use xlink:href="#b2boCSe89P" opacity="1" fill-opacity="0" stroke="#000000" stroke-width="0.05" stroke-opacity="0"></use></g></g><g><use xlink:href="#bVpyKdGx1" opacity="1" fill="#000007" fill-opacity="1"></use><g><use xlink:href="#bVpyKdGx1" opacity="1" fill-opacity="0" stroke="#000000" stroke-width="0.05" stroke-opacity="0"></use></g></g><g><use xlink:href="#a3C6K7QxIi" opacity="1" fill="#1cb14b" fill-opacity="1"></use><g><use xlink:href="#a3C6K7QxIi" opacity="1" fill-opacity="0" stroke="#000000" stroke-width="0.05" stroke-opacity="0"></use></g></g><g><use xlink:href="#a2fC7TnaA" opacity="1" fill="#000000" fill-opacity="1"></use><g><use xlink:href="#a2fC7TnaA" opacity="1" fill-opacity="0" stroke="#000000" stroke-width="0.05" stroke-opacity="0"></use></g></g><g><use xlink:href="#aymKAQa8X" opacity="1" fill="#1cb14b" fill-opacity="1"></use><g><use xlink:href="#aymKAQa8X" opacity="1" fill-opacity="0" stroke="#000000" stroke-width="0.05" stroke-opacity="0"></use></g></g><g><use xlink:href="#a2X7wONsw" opacity="1" fill="#000000" fill-opacity="1"></use><g><use xlink:href="#a2X7wONsw" opacity="1" fill-opacity="0" stroke="#000000" stroke-width="0.39" stroke-opacity="0"></use></g></g><g><use xlink:href="#ouslu49c0" opacity="1" fill="#f27725" fill-opacity="1"></use><g><use xlink:href="#ouslu49c0" opacity="1" fill-opacity="0" stroke="#000000" stroke-width="0.39" stroke-opacity="0"></use></g></g><g><use xlink:href="#dbI834gCj" opacity="1" fill="#000000" fill-opacity="1"></use><g><use xlink:href="#dbI834gCj" opacity="1" fill-opacity="0" stroke="#000000" stroke-width="0.39" stroke-opacity="0"></use></g></g><g><use xlink:href="#b2qSh2GAF" opacity="1" fill="#b9519e" fill-opacity="1"></use><g><use xlink:href="#b2qSh2GAF" opacity="1" fill-opacity="0" stroke="#000000" stroke-width="0.16" stroke-opacity="0"></use></g></g><g><use xlink:href="#b5JQ7OdDJP" opacity="1" fill="#b9519e" fill-opacity="1"></use><g><use xlink:href="#b5JQ7OdDJP" opacity="1" fill-opacity="0" stroke="#000000" stroke-width="0.16" stroke-opacity="0"></use></g></g><g><use xlink:href="#a2RkhHYDuC" opacity="1" fill="#b9519e" fill-opacity="1"></use><g><use xlink:href="#a2RkhHYDuC" opacity="1" fill-opacity="0" stroke="#000000" stroke-width="0.16" stroke-opacity="0"></use></g></g><g><use xlink:href="#i1qNUzCvH7" opacity="1" fill="#b9519e" fill-opacity="1"></use><g><use xlink:href="#i1qNUzCvH7" opacity="1" fill-opacity="0" stroke="#000000" stroke-width="0.16" stroke-opacity="0"></use></g></g><g><use xlink:href="#aOztPA7qf" opacity="1" fill="#b9519e" fill-opacity="1"></use><g><use xlink:href="#aOztPA7qf" opacity="1" fill-opacity="0" stroke="#000000" stroke-width="0.16" stroke-opacity="0"></use></g></g><g><use xlink:href="#d1TOtJXrzT" opacity="1" fill="#b9519e" fill-opacity="1"></use><g><use xlink:href="#d1TOtJXrzT" opacity="1" fill-opacity="0" stroke="#000000" stroke-width="0.16" stroke-opacity="0"></use></g></g><g><use xlink:href="#a77jjo6JQ" opacity="1" fill="#000000" fill-opacity="1"></use><g><use xlink:href="#a77jjo6JQ" opacity="1" fill-opacity="0" stroke="#000000" stroke-width="0.39" stroke-opacity="0"></use></g></g><g><use xlink:href="#dRifjWdK6" opacity="1" fill="#f27725" fill-opacity="1"></use><g><use xlink:href="#dRifjWdK6" opacity="1" fill-opacity="0" stroke="#000000" stroke-width="0.39" stroke-opacity="0"></use></g></g><g><use xlink:href="#fohnfH8do" opacity="1" fill="#000000" fill-opacity="1"></use><g><use xlink:href="#fohnfH8do" opacity="1" fill-opacity="0" stroke="#000000" stroke-width="0.16" stroke-opacity="0"></use></g></g><g><use xlink:href="#c8zNqlYlE" opacity="1" fill="#000000" fill-opacity="1"></use><g><use xlink:href="#c8zNqlYlE" opacity="1" fill-opacity="0" stroke="#000000" stroke-width="0.16" stroke-opacity="0"></use></g></g><g><use xlink:href="#b10tRYb79F" opacity="1" fill="#000000" fill-opacity="1"></use><g><use xlink:href="#b10tRYb79F" opacity="1" fill-opacity="0" stroke="#000000" stroke-width="0.16" stroke-opacity="0"></use></g></g><g><use xlink:href="#aBYR0jU2s" opacity="1" fill="#000000" fill-opacity="1"></use><g><use xlink:href="#aBYR0jU2s" opacity="1" fill-opacity="0" stroke="#000000" stroke-width="0.16" stroke-opacity="0"></use></g></g><g><use xlink:href="#a2ik0S1gtf" opacity="1" fill="#000000" fill-opacity="1"></use><g><use xlink:href="#a2ik0S1gtf" opacity="1" fill-opacity="0" stroke="#000000" stroke-width="0.16" stroke-opacity="0"></use></g></g><g><use xlink:href="#diVTHPzkD" opacity="1" fill="#000000" fill-opacity="1"></use><g><use xlink:href="#diVTHPzkD" opacity="1" fill-opacity="0" stroke="#000000" stroke-width="0.16" stroke-opacity="0"></use></g></g><g><use xlink:href="#c4kZQs9LSI" opacity="1" fill="#000000" fill-opacity="1"></use><g><use xlink:href="#c4kZQs9LSI" opacity="1" fill-opacity="0" stroke="#000000" stroke-width="0.16" stroke-opacity="0"></use></g></g><g><use xlink:href="#apQMMMNFC" opacity="1" fill="#000000" fill-opacity="1"></use><g><use xlink:href="#apQMMMNFC" opacity="1" fill-opacity="0" stroke="#000000" stroke-width="0.16" stroke-opacity="0"></use></g></g><g><use xlink:href="#b46dJfALO" opacity="1" fill="#000000" fill-opacity="1"></use><g><use xlink:href="#b46dJfALO" opacity="1" fill-opacity="0" stroke="#000000" stroke-width="0.16" stroke-opacity="0"></use></g></g><g><use xlink:href="#a1XUPQuiM" opacity="1" fill="#000000" fill-opacity="1"></use><g mask="url(#maski1ENBUr1Vi)"><use xlink:href="#a1XUPQuiM" opacity="1" fill-opacity="0" stroke="#ffffff" stroke-width="10" stroke-opacity="1"></use></g></g><g><use xlink:href="#g6QvKRGOdS" opacity="1" fill="#000000" fill-opacity="1"></use><g><use xlink:href="#g6QvKRGOdS" opacity="1" fill-opacity="0" stroke="#000000" stroke-width="0.16" stroke-opacity="0"></use></g></g><g><use xlink:href="#b9ciCYPOGM" opacity="1" fill="#000000" fill-opacity="1"></use><g><use xlink:href="#b9ciCYPOGM" opacity="1" fill-opacity="0" stroke="#000000" stroke-width="0.16" stroke-opacity="0"></use></g></g><g><use xlink:href="#a5IbknjoT" opacity="1" fill="#000000" fill-opacity="1"></use><g><use xlink:href="#a5IbknjoT" opacity="1" fill-opacity="0" stroke="#000000" stroke-width="0.16" stroke-opacity="0"></use></g></g><g><use xlink:href="#j2PAcq36Tz" opacity="1" fill="#000000" fill-opacity="1"></use><g><use xlink:href="#j2PAcq36Tz" opacity="1" fill-opacity="0" stroke="#000000" stroke-width="0.16" stroke-opacity="0"></use></g></g><g><use xlink:href="#bgphwRb5y" opacity="1" fill="#000000" fill-opacity="1"></use><g><use xlink:href="#bgphwRb5y" opacity="1" fill-opacity="0" stroke="#000000" stroke-width="0.16" stroke-opacity="0"></use></g></g><g><use xlink:href="#kxq6IkdwX" opacity="1" fill="#000000" fill-opacity="1"></use><g><use xlink:href="#kxq6IkdwX" opacity="1" fill-opacity="0" stroke="#000000" stroke-width="0.16" stroke-opacity="0"></use></g></g><g><use xlink:href="#dqZWT52F7" opacity="1" fill="#000000" fill-opacity="1"></use><g><use xlink:href="#dqZWT52F7" opacity="1" fill-opacity="0" stroke="#000000" stroke-width="0.16" stroke-opacity="0"></use></g></g><g><use xlink:href="#c1VfD6iKMA" opacity="1" fill="#000000" fill-opacity="1"></use><g><use xlink:href="#c1VfD6iKMA" opacity="1" fill-opacity="0" stroke="#000000" stroke-width="0.16" stroke-opacity="0"></use></g></g><g><use xlink:href="#aHRQhZ7KI" opacity="1" fill="#000000" fill-opacity="1"></use><g><use xlink:href="#aHRQhZ7KI" opacity="1" fill-opacity="0" stroke="#000000" stroke-width="0.16" stroke-opacity="0"></use></g></g><g><use xlink:href="#aoHxdNGcZ" opacity="1" fill="#000000" fill-opacity="1"></use><g><use xlink:href="#aoHxdNGcZ" opacity="1" fill-opacity="0" stroke="#000000" stroke-width="0.16" stroke-opacity="0"></use></g></g><g><use xlink:href="#a44Zz4ajKq" opacity="1" fill="#000000" fill-opacity="1"></use><g><use xlink:href="#a44Zz4ajKq" opacity="1" fill-opacity="0" stroke="#000000" stroke-width="0.16" stroke-opacity="0"></use></g></g><g><use xlink:href="#a1giLuwmMl" opacity="1" fill="#000000" fill-opacity="1"></use><g><use xlink:href="#a1giLuwmMl" opacity="1" fill-opacity="0" stroke="#000000" stroke-width="0.16" stroke-opacity="0"></use></g></g><g><use xlink:href="#a3d14NErA" opacity="1" fill="#000000" fill-opacity="1"></use><g><use xlink:href="#a3d14NErA" opacity="1" fill-opacity="0" stroke="#000000" stroke-width="0.16" stroke-opacity="0"></use></g></g><g><use xlink:href="#a1GZPas2sQ" opacity="1" fill="#000000" fill-opacity="1"></use><g><use xlink:href="#a1GZPas2sQ" opacity="1" fill-opacity="0" stroke="#000000" stroke-width="0.16" stroke-opacity="0"></use></g></g><g><use xlink:href="#i4ZUTexqhI" opacity="1" fill="#1cb14b" fill-opacity="1"></use><g><use xlink:href="#i4ZUTexqhI" opacity="1" fill-opacity="0" stroke="#000000" stroke-width="0.05" stroke-opacity="0"></use></g></g><g><use xlink:href="#anCs1MgEC" opacity="1" fill="#1cb14b" fill-opacity="1"></use><g><use xlink:href="#anCs1MgEC" opacity="1" fill-opacity="0" stroke="#000000" stroke-width="0.05" stroke-opacity="0"></use></g></g><g><use xlink:href="#d1dFwkZ0eI" opacity="1" fill="#1cb14b" fill-opacity="1"></use><g><use xlink:href="#d1dFwkZ0eI" opacity="1" fill-opacity="0" stroke="#000000" stroke-width="0.05" stroke-opacity="0"></use></g></g><g><use xlink:href="#b1xNhHnRTY" opacity="1" fill="#1cb14b" fill-opacity="1"></use><g><use xlink:href="#b1xNhHnRTY" opacity="1" fill-opacity="0" stroke="#000000" stroke-width="0.05" stroke-opacity="0"></use></g></g><g><use xlink:href="#b4xbQdp5CN" opacity="1" fill="#1cb14b" fill-opacity="1"></use><g><use xlink:href="#b4xbQdp5CN" opacity="1" fill-opacity="0" stroke="#000000" stroke-width="0.05" stroke-opacity="0"></use></g></g><g><use xlink:href="#a1SU52zSE" opacity="1" fill="#1cb14b" fill-opacity="1"></use><g><use xlink:href="#a1SU52zSE" opacity="1" fill-opacity="0" stroke="#000000" stroke-width="0.05" stroke-opacity="0"></use></g></g><g><use xlink:href="#d4uAZfg2yP" opacity="1" fill="#1cb14b" fill-opacity="1"></use><g><use xlink:href="#d4uAZfg2yP" opacity="1" fill-opacity="0" stroke="#000000" stroke-width="0.05" stroke-opacity="0"></use></g></g><g><use xlink:href="#cOjZL0vHt" opacity="1" fill="#1cb14b" fill-opacity="1"></use><g><use xlink:href="#cOjZL0vHt" opacity="1" fill-opacity="0" stroke="#000000" stroke-width="0.05" stroke-opacity="0"></use></g></g><g><use xlink:href="#d76xF3VIM" opacity="1" fill="#1cb14b" fill-opacity="1"></use><g><use xlink:href="#d76xF3VIM" opacity="1" fill-opacity="0" stroke="#000000" stroke-width="0.05" stroke-opacity="0"></use></g></g><g><use xlink:href="#jfmw4JhUi" opacity="1" fill="#1cb14b" fill-opacity="1"></use><g><use xlink:href="#jfmw4JhUi" opacity="1" fill-opacity="0" stroke="#000000" stroke-width="0.05" stroke-opacity="0"></use></g></g><g><use xlink:href="#b7f3dGsAAk" opacity="1" fill="#1cb14b" fill-opacity="1"></use><g><use xlink:href="#b7f3dGsAAk" opacity="1" fill-opacity="0" stroke="#000000" stroke-width="0.05" stroke-opacity="0"></use></g></g><g><use xlink:href="#c1FQyp9nlO" opacity="1" fill="#1cb14b" fill-opacity="1"></use><g><use xlink:href="#c1FQyp9nlO" opacity="1" fill-opacity="0" stroke="#000000" stroke-width="0.05" stroke-opacity="0"></use></g></g><g><use xlink:href="#g2rmVQbcfK" opacity="1" fill="#1cb14b" fill-opacity="1"></use><g><use xlink:href="#g2rmVQbcfK" opacity="1" fill-opacity="0" stroke="#000000" stroke-width="0.05" stroke-opacity="0"></use></g></g><g><use xlink:href="#aw4r54m8B" opacity="1" fill="#1cb14b" fill-opacity="1"></use><g><use xlink:href="#aw4r54m8B" opacity="1" fill-opacity="0" stroke="#000000" stroke-width="0.05" stroke-opacity="0"></use></g></g><g><use xlink:href="#d2asseiWWu" opacity="1" fill="#1cb14b" fill-opacity="1"></use><g><use xlink:href="#d2asseiWWu" opacity="1" fill-opacity="0" stroke="#000000" stroke-width="0.05" stroke-opacity="0"></use></g></g><g><use xlink:href="#btoYMowVX" opacity="1" fill="#1cb14b" fill-opacity="1"></use><g><use xlink:href="#btoYMowVX" opacity="1" fill-opacity="0" stroke="#000000" stroke-width="0.05" stroke-opacity="0"></use></g></g><g><use xlink:href="#c1YT0RSyN" opacity="1" fill="#1cb14b" fill-opacity="1"></use><g><use xlink:href="#c1YT0RSyN" opacity="1" fill-opacity="0" stroke="#000000" stroke-width="0.05" stroke-opacity="0"></use></g></g><g><use xlink:href="#c6hGgqC8Mo" opacity="1" fill="#f27725" fill-opacity="1"></use><g><use xlink:href="#c6hGgqC8Mo" opacity="1" fill-opacity="0" stroke="#000000" stroke-width="0.05" stroke-opacity="0"></use></g></g><g><use xlink:href="#bP7Ond5dF" opacity="1" fill="#b9519e" fill-opacity="1"></use><g><use xlink:href="#bP7Ond5dF" opacity="1" fill-opacity="0" stroke="#000000" stroke-width="0.05" stroke-opacity="0"></use></g></g><g><use xlink:href="#b45p3QgEI9" opacity="1" fill="#f27725" fill-opacity="1"></use><g><use xlink:href="#b45p3QgEI9" opacity="1" fill-opacity="0" stroke="#000000" stroke-width="0.05" stroke-opacity="0"></use></g></g><g><use xlink:href="#anGFqRuoZ" opacity="1" fill="#b9519e" fill-opacity="1"></use><g><use xlink:href="#anGFqRuoZ" opacity="1" fill-opacity="0" stroke="#000000" stroke-width="0.05" stroke-opacity="0"></use></g></g><g><use xlink:href="#c2be4tkXDR" opacity="1" fill="#f27725" fill-opacity="1"></use><g><use xlink:href="#c2be4tkXDR" opacity="1" fill-opacity="0" stroke="#000000" stroke-width="0.05" stroke-opacity="0"></use></g></g><g><use xlink:href="#dINu4vUqw" opacity="1" fill="#b9519e" fill-opacity="1"></use><g><use xlink:href="#dINu4vUqw" opacity="1" fill-opacity="0" stroke="#000000" stroke-width="0.05" stroke-opacity="0"></use></g></g></g></g></svg>